<svg xmlns="http://www.w3.org/2000/svg" width="512" height="512" viewBox="0 0 512 512" role="img" aria-label="Logo">
  
  <!-- Dark blue circle background -->
  <circle cx="256" cy="256" r="256" fill="#0B1E47"/>

  <!-- Logo group -->
  <!-- Original viewBox: 0 0 422.6 66 -->
  <!-- Scaled and centered -->
  <g transform="translate(44 216) scale(1.0)">
    
    <path fill="#FFFFFF"
      d="M91.2,66L51.3,3C48.9-1,42.3-1,39.6,3.2L0,66h13.1L25,47h25.5l6.7-10.8H31.7l13.9-21.8L78.1,66H91.2z"/>

    <path fill="#FFFFFF"
      d="M422.6,66L382.7,3.1c-2.5-4.1-9-4.1-11.8,0.2L331.4,66h13.1l11.9-19h25.5l6.7-10.8h-25.5L377,14.5L409.5,66H422.6z"/>

    <path fill="#FFFFFF"
      d="M149.7,39.2c10.8,0,19.6-8.8,19.6-19.6S160.5,0,149.7,0L95.9,0v66H108V10.8h41.7c4.9,0,8.8,4,8.8,8.8
      c0,4.9-4,8.8-8.8,8.8h-34.4l38.8,37.5h15.6l-27.8-26.7L149.7,39.2z"/>

    <polygon fill="#FFFFFF"
      points="287.2,0 280.2,10.8 309.4,10.8 309.4,66 321.4,66 321.4,10.8 347.4,10.8 347.4,0"/>

    <path fill="#FFFFFF"
      d="M259.5,27.6L259.5,27.6H225h0c-4.6,0-8.4-3.7-8.4-8.4c0-4.6,3.8-8.4,8.4-8.4l42.7,0l6.7-10.8l-49.4,0
      c-10.6,0-19.2,8.6-19.2,19.2c0,10.6,8.6,19.2,19.2,19.2h0h34.4h0c4.6,0,8.4,3.7,8.4,8.4
      c0,4.6-3.8,8.4-8.4,8.4h0l-45.2,0L207.6,66l51.9,0c10.6,0,19.2-8.6,19.2-19.2
      C278.6,36.2,270.1,27.6,259.5,27.6"/>

    <polygon fill="#FFFFFF"
      points="181.9,0.2 181.9,66 193.9,66 193.9,0.2"/>

  </g>

</svg>