<svg
  width="512"
  height="512"
  viewBox="0 0 512 512"
  xmlns="http://www.w3.org/2000/svg"
  xml:space="preserve"
>
  <!-- red circular background -->
  <circle cx="256" cy="256" r="256" fill="#DA291C" />

  <!-- original logo (viewBox: 0 0 177.8 127), scaled + centered -->
  <g transform="translate(78.5 127.5) scale(2)">
    <g>
      <path
        fill="#FFFFFF"
        d="M0,47.1h50.3v33H0V47.1z M64.2,0.2h49.4v33H64.2V0.2z M64.2,93.8h49.4v33H64.2V93.8z M127.4,47.1h50.5v33
        h-50.5V47.1z M20.7,0.2C10.2,2.9,2,14.6,0,29.6v3.7h50.3V0.2H20.7z M0,93.8v4.1c1.8,14.3,9.5,25.7,19.4,28.9h31v-33H0z M177.8,33.2
        v-3.7c-2-14.8-10.2-26.6-20.7-29.4h-29.8v33h50.5V33.2z M158.4,127c9.8-3.4,17.5-14.6,19.4-28.9V94h-50.5v33H158.4L158.4,127z"
      />
    </g>
  </g>
</svg>
