<svg xmlns="http://www.w3.org/2000/svg" width="512" height="512" viewBox="0 0 512 512" role="img" aria-label="GCP Logo">
  
  <!-- White circular background -->
  <circle cx="256" cy="256" r="256" fill="#ffffff"/>

  <!-- Logo group -->
  <!-- Original viewBox: 0 0 33.8 44.1 -->
  <!-- Scaled and centered -->
  <g transform="translate(150 107) scale(6.7)">
    
    <path fill="#C5203F" fill-rule="evenodd" clip-rule="evenodd"
      d="M33.8,0h-0.3C5.5,2.6,2,21.3,11.1,27.4c-1.6,6.8,0,6.8,0,6.8c0.2-2,0.6-4.1,1.1-6.1
      c3.5-13.4,12.4-25,21.3-27.9l0,0C33.8,0.3,33.8,0.3,33.8,0"/>

    <path fill="#C5203F" fill-rule="evenodd" clip-rule="evenodd"
      d="M32,4.7V4.4l-0.3,0.3c-2.2,4.5-3,10.8-4.6,15.5c-2.2,5.5-5.7,9.5-11.3,8.9v13.7
      c0,0-14.8-6.6-14.8-17.1V6l12.1-1.1l0,0c0.3,0,0.3,0,0.3-0.3H0v21c0,11.8,15.9,18.4,15.9,18.4
      S32,37.3,32,25.7V4.7z"/>

  </g>

</svg>