<svg
  xmlns="http://www.w3.org/2000/svg"
  viewBox="0 0 120 120"
  width="516"
  height="516"
>
  <!-- Blue circle background -->
  <circle cx="60" cy="60" r="60" fill="#005EB8" />

  <!-- Optically centered, extra-large Micron M -->
  <path
    d="M0,39.55h9.36c2.81,0,4.1-1.11,4.1-4.28v-6.64c0-9.9,4.64-15.07,13.51-15.07
       4.64,0,8.16,1.65,10.25,4.82,2.18-3.17,5.53-4.82,10.17-4.82
       8.87,0,13.51,5.17,13.51,15.07v16.94h-6.6v-16.94
       c0-6.11-2.45-9.05-6.91-9.05s-6.91,2.94-6.91,9.05v16.94h-6.6
       v-16.94c0-6.11-2.45-9.05-6.91-9.05s-6.91,2.94-6.91,9.05v6.64
       c0,7.4-3.57,10.3-10.7,10.3H0v-6.02Z"
    fill="#ffffff"
    transform="translate(22 26) scale(1.15)"
  />
</svg>