<svg
  width="512"
  height="512"
  viewBox="0 0 512 512"
  xmlns="http://www.w3.org/2000/svg"
  xml:space="preserve"
>
  <!-- white circular background -->
  <circle cx="256" cy="256" r="256" fill="#FFFFFF" />

  <!--
    Original viewBox: 27.7 -16.4 102.3 139.4
    Step 1: translate(-27.7, +16.4) → normalize to (0,0)
    Step 2: scale uniformly
    Step 3: center inside 512×512
  -->
  <g transform="
    translate(256 256)
    scale(2.85)
    translate(-51.15 -69.7)
    translate(-27.7 16.4)
  ">
    <path
      fill="#115740"
      d="M79.3,114.7l-8.6-7.5h0.4c5.2,0.9,10.6,0.9,15.8,0h0.4L79.3,114.7z
      M124.1,61.1c-1.1,9.7-5,18.9-11.8,26.1c-7.7,8.3-18.2,13.4-29.6,14.3h-0.2V73
      L76,65.1v36.4h-0.2c-11.4-0.9-21.9-5.9-29.6-14.3C39.4,80,35.4,71,34.3,61.1
      l-6.6-5.7v1.1c0,9.4,2.6,18.7,7.5,26.8c4.8,7.9,11.8,14.5,20,18.7L78.9,123
      l23.7-21.1c8.3-4.4,15.1-10.8,20-18.9c5-8.1,7.5-17.3,7.5-26.8v-1.1L124.1,61.1z
      M79.3,4.7c-4.1,0-7.4-3.3-7.5-7.3c0-4.1,3.2-7.4,7.3-7.5c4.1,0,7.4,3.3,7.5,7.3
      C86.5,1.4,83.3,4.7,79.3,4.7z
      M90.7,4.7l0.2-0.2c1.3-2.2,2-4.6,2-7.2c0-7.5-6.1-13.6-13.6-13.6
      c-7.5,0-13.6,6.1-13.6,13.6c0,2.6,0.7,5,2,7.2l0.2,0.2H41.8v6.4H76v20.8
      l6.4,7.9V11.1h34.2V4.7H90.7z
      M110.7,24.7H89.8V31h7.2v24.4h6.4V31h7.2V24.7z
      M63.1,37.2l33.1,41.5h8.1l-43.2-54H49.2V31h7.2v41.5h-7.2v6.1h20.8
      v-6.1h-7.2V36.8z"
    />
  </g>
</svg>
