<svg xmlns="http://www.w3.org/2000/svg" width="512" height="512" viewBox="0 0 512 512" role="img" aria-label="Logo">
  
  <!-- White circular background -->
  <circle cx="256" cy="256" r="256" fill="#FFFFFF"/>

  <!-- Logo group -->
  <!-- Original viewBox: 0 0 550.9 551 -->
  <!-- Scaled and centered -->
  <g transform="translate(32 32) scale(0.81)">
    
    <!-- Light blue shapes -->
    <path fill="#0095FF"
      d="M3.9,331.2c0.7-2,1.4-3.9,2.4-5.8c23.6-47.7,124.5-67.4,269.1-49.9l29.1-107
      C155.7,149.6,47.1,170.9,29,238.6L3.9,331.2z"/>

    <path fill="#0095FF"
      d="M99.1,107C318.7,122.8,543,231.4,521.8,312.5l19.7-72.4c6.3-22.8,9.4-34.6,9.4-44.1
      c0-82.6-216.5-183.4-422.7-196L99.1,107z"/>

    <!-- Dark blue shapes -->
    <path fill="#0000C9"
      d="M546.9,219.8c-0.6,1.6-1.2,3.2-1.9,4.8C522.4,273,421.1,293,275.4,275.4l-29.1,107
      c148.8,18.9,257.4-2.4,275.5-70.1L546.9,219.8z"/>

    <path fill="#0000C9"
      d="M451.7,443.9C232.1,428.2,7.8,319.6,29.1,238.5L9.4,310.9C3.1,333.7,0,345.5,0,355
      c0,82.6,216.5,183.4,422.7,196L451.7,443.9z"/>

  </g>

</svg>