<svg xmlns="http://www.w3.org/2000/svg" width="512" height="512" viewBox="0 0 512 512" role="img" aria-label="Logo">
  
  <!-- White circular background -->
  <circle cx="256" cy="256" r="256" fill="#FFFFFF"/>

  <!-- Logo group -->
  <!-- Original artwork centered and scaled -->
  <g transform="translate(18 -60) scale(0.68)">
    
    <!-- Red part -->
    <path fill="#ed1c24"
      d="M355.02537,715.37104 C335.03593,715.37104 324.76188,702.33533 324.76188,702.33533
      C308.33331,701.62104 179.94045,701.97818 179.94045,701.97818
      L167.44045,596.46933
      C167.44045,596.46933 88.360125,540.72818 81.931554,534.29961
      C43.972263,362.09404 181.17751,197.92475 355.03065,197.92475
      C528.88379,197.92475 666.08904,362.09404 628.12975,534.29961
      C621.70117,540.72818 542.62085,596.46933 542.62085,596.46933
      L530.12085,701.97818
      C530.12085,701.97818 401.72799,701.62104 385.29942,702.33533
      C385.29942,702.33533 375.02537,715.37104 355.02537,715.37104 z"/>

    <!-- Yellow part -->
    <path fill="#ffd500"
      d="M355.2112,554.91135 L343.07983,250.34962
      C328.44892,247.36372 291.12518,250.94681 271.11966,265.8763
      L329.3447,556.10571
      L249.91977,277.8199
      C230.8796,277.58651 192.45851,309.78015 189.60461,319.3239
      L305.4575,566.25777
      L175.27229,340.52378
      C162.43292,345.30122 134.36547,396.95728 138.84432,402.95936
      L283.95903,580.59009
      L134.66406,428.9064
      C134.66406,428.9064 115.25571,458.46681 127.91248,508.53689
      L212.24117,569.43546
      L222.79862,652.63525
      L326.18883,652.63525
      C326.18883,652.63525 343.1038,668.66855 355.1056,668.66855
      C367.1074,668.66855 384.02237,652.63525 384.02237,652.63525
      L487.41258,652.63525
      L497.97003,569.43546
      L582.29872,508.53689
      C594.95549,458.46681 575.54714,428.9064 575.54714,428.9064
      L426.25217,580.59009
      L571.36688,402.95936
      C575.84573,396.95728 547.77828,345.30122 534.93891,340.52378
      L404.7537,566.25777
      L520.60659,319.3239
      C517.75269,309.78015 479.3316,277.58651 460.29143,277.8199
      L380.8665,556.10571
      L439.09154,265.8763
      C419.08602,250.94681 381.76228,247.36372 367.13137,250.34962
      L355.2112,554.91135 z"/>

  </g>

</svg>