<svg
  width="512"
  height="512"
  viewBox="0 0 512 512"
  xmlns="http://www.w3.org/2000/svg"
  xml:space="preserve"
>
  <!-- purple circular background -->
  <circle cx="256" cy="256" r="256" fill="#5a2984" />

  <!-- original logo scaled & centered (original viewBox: 0 0 597.4 130) -->
  <g transform="translate(48 200) scale(0.70)">
    <path fill="#FFFFFF" d="M41.6,15.1c0-4-2-7-10.8-7s-10.8,3-10.8,7v10.8c0,3.6,1.5,7,4.3,9.3L54,60.9c4.1,2.9,6.6,7.6,6.9,12.6v16.3
      c0,9.7-11.4,15.1-30.3,15.1C10,104.8,0,100.1,0,89.7v-14h18.8v13.5c0,4.9,3.7,7.7,12,7.7c7.7,0,11.4-2.8,11.4-7.7V74.7
      c0-3.6-1.4-6.3-5.4-9.8L9.1,40.8c-5.1-4.3-8-7.8-8-13.1V15.3C1.1,5.2,11.7,0.2,30.8,0.2c21.1,0,29.6,5,29.6,14.4v13.1H41.6
      L41.6,15.1z" />
    <path fill="#FFFFFF" d="M223,17.3C223,7.2,230.6,0,256,0s33,7.3,33,17.3v69.9c0,10.1-7.7,17.3-33.1,17.3c-25.4,0-33.1-7.3-33.1-17.3
      L223,17.3z M241.8,86.8c0,5.7,2.3,9.7,14.2,9.7s14.2-3.9,14.2-9.6V17.7c0-5.7-2.2-9.7-14.2-9.7c-12.1,0-14.3,4-14.3,9.7V86.8z" />
    <path fill="#FFFFFF" d="M299.5,0.8h29.9c24.2,0,31.3,4,31.3,15.7v25.2c0,11.7-7.1,15.7-31.3,15.7h-11.1v46.4h-18.8V0.8z M327.4,49.4
      c8.5,0,14.5-1.1,14.5-6.5V15.2c0-5.3-6-6.5-14.5-6.5h-9.1v40.7L327.4,49.4z" />
    <path fill="#FFFFFF" d="M407.7,15c0-4-2-7-10.8-7s-10.8,3-10.8,7v10.8c0,3.6,1.6,7,4.3,9.3l29.9,25.6c4,3,6.5,7.6,6.8,12.5v16.2
      c0,9.7-11.4,15.1-30.3,15.1c-20.8,0-30.8-4.7-30.8-15.1V75.4h18.7v13.5c0,4.8,3.7,7.7,12,7.7c7.7,0,11.4-2.9,11.4-7.7V74.5
      c0-3.5-1.4-6.3-5.4-9.8l-27.6-24.1c-5.1-4.3-8-7.8-8-13.1V15.1C367.2,5,377.8,0,396.9,0c21.1,0,29.6,5,29.6,14.4v13.1h-18.8V15z" />
    <path fill="#FFFFFF" d="M546.5,15c0-4-2-7-10.8-7c-8.8,0-10.8,3-10.8,7v10.8c0,3.6,1.6,7,4.3,9.3l29.9,25.6c4,3,6.5,7.6,6.8,12.5
      v16.2c0,9.7-11.4,15.1-30.3,15.1c-20.8,0-30.8-4.7-30.8-15.1V75.4h18.8v13.5c0,4.8,3.7,7.7,12,7.7c7.7,0,11.4-2.9,11.4-7.7V74.5
      c0-3.5-1.4-6.3-5.4-9.8L514,40.6c-5.1-4.3-8-7.8-8-13.1V15.1C506,5,516.5,0,535.6,0c21.1,0,29.6,5,29.6,14.4v13.1h-18.8V15z" />
    <polygon fill="#FFFFFF" points="119.2,0.9 138,0.9 96.8,130 78,130" />
    <polygon fill="#FFFFFF" points="89.5,81.1 64,1.1 82.8,1.1 98.9,51.5" />
    <polygon fill="#FFFFFF" points="485,0.9 503.9,0.9 462.7,130 443.8,130" />
    <polygon fill="#FFFFFF" points="455.4,80.8 430,0.9 448.8,0.9 464.8,51.3" />
    <path fill="#FFFFFF" d="M211.4,103.8L211.4,103.8V16.5c0-11.7-7.1-15.7-31.3-15.7h-36.1v102.9h18.8V8.9h15.5c8.6,0,14.5,1.1,14.5,6.5
      v88.4H211.4z" />
    <path fill="#FFFFFF" d="M573.1,13.6c-0.1-6.7,5.3-12.2,12-12.2c6.7-0.1,12.2,5.3,12.2,12s-5.3,12.2-12,12.2c0,0,0,0-0.1,0
      c-6.6,0.1-12.1-5.1-12.2-11.7C573.1,13.7,573.1,13.7,573.1,13.6z M585.3,23.6c5.3,0,9.7-4.3,9.7-9.6c0-0.1,0-0.2,0-0.4
      c0-5.4-4.4-9.7-9.7-9.7c-5.4,0-9.7,4.4-9.7,9.7c-0.2,5.3,4,9.8,9.4,10C585,23.6,585.2,23.6,585.3,23.6z M582.8,20.5h-2.2V6.7h5.3
      c3.3,0,4.9,1.2,4.9,3.9c0.1,2-1.4,3.7-3.4,3.8c-0.1,0-0.1,0-0.2,0l3.9,6.1h-2.3l-3.7-6h-2.4L582.8,20.5z M585.3,12.7
      c1.8,0,3.4-0.1,3.4-2.2c0-1.7-1.6-2-3-2h-2.9v4.3L585.3,12.7z" />
  </g>
</svg>
