<svg xmlns="http://www.w3.org/2000/svg"
     xmlns:dc="http://purl.org/dc/elements/1.1/"
     xmlns:cc="http://creativecommons.org/ns#"
     xmlns:rdf="http://www.w3.org/1999/02/22-rdf-syntax-ns#"
     xmlns:xlink="http://www.w3.org/1999/xlink"
     xmlns:sodipodi="http://sodipodi.sourceforge.net/DTD/sodipodi-0.dtd"
     xmlns:inkscape="http://www.inkscape.org/namespaces/inkscape"
     width="800"
     height="800"
     viewBox="0 0 800 800">

  <!-- White circle background -->
  <circle cx="400" cy="400" r="380" fill="#ffffff"/>

  <!-- Clip everything to a circle so nothing spills outside -->
  <defs>
    <clipPath id="clipCircle">
      <circle cx="400" cy="400" r="380"/>
    </clipPath>

    <!-- ===== YOUR ORIGINAL <defs> (unchanged) ===== -->
    <linearGradient inkscape:collect="always" id="linearGradient3170">
      <stop style="stop-color:#00a8e0;stop-opacity:1" offset="0" id="stop3172"/>
      <stop style="stop-color:#1696d4;stop-opacity:1" offset="1" id="stop3174"/>
    </linearGradient>

    <linearGradient inkscape:collect="always" id="linearGradient3160">
      <stop style="stop-color:white;stop-opacity:1" offset="0" id="stop3162"/>
      <stop style="stop-color:#e6e6e6;stop-opacity:1" offset="1" id="stop3164"/>
    </linearGradient>

    <!-- (keeping everything you had) -->
    <radialGradient r="43.452892" fy="90.500206" fx="64.85778" cy="90.500206" cx="64.85778"
      gradientTransform="matrix(1.6122245e-5,2.3792062,-3.7830221,0,386.63937,-52.298135)"
      gradientUnits="userSpaceOnUse" id="radialGradient8019" href="#linearGradient8021" inkscape:collect="always"/>

    <radialGradient r="43.452892" fy="90.500206" fx="64.85778" cy="90.500206" cx="64.85778"
      gradientTransform="matrix(1.6122245e-5,2.3792062,-3.7830221,0,386.63937,-52.298135)"
      gradientUnits="userSpaceOnUse" id="radialGradient8016" href="#linearGradient8027" inkscape:collect="always"/>

    <radialGradient r="43.452892" fy="90.500206" fx="64.85778" cy="90.500206" cx="64.85778"
      gradientTransform="matrix(1.6122245e-5,2.3792062,-3.7830221,0,386.63937,-52.298135)"
      gradientUnits="userSpaceOnUse" id="radialGradient8013" href="#linearGradient8033" inkscape:collect="always"/>

    <radialGradient r="43.452892" fy="90.500206" fx="64.85778" cy="90.500206" cx="64.85778"
      gradientTransform="matrix(1.6122245e-5,2.3792062,-3.7830221,0,386.63937,-52.298135)"
      gradientUnits="userSpaceOnUse" id="radialGradient8010" href="#linearGradient8039" inkscape:collect="always"/>

    <radialGradient r="43.452892" fy="90.500206" fx="64.85778" cy="90.500206" cx="64.85778"
      gradientTransform="matrix(1.6122245e-5,2.3792062,-3.7830221,0,386.63937,-52.298135)"
      gradientUnits="userSpaceOnUse" id="radialGradient8007" href="#linearGradient8045" inkscape:collect="always"/>

    <radialGradient r="43.452892" fy="90.500206" fx="64.85778" cy="90.500206" cx="64.85778"
      gradientTransform="matrix(1.6122245e-5,2.3792062,-3.7830221,0,386.63937,-52.298135)"
      gradientUnits="userSpaceOnUse" id="radialGradient8004" href="#linearGradient8051" inkscape:collect="always"/>

    <radialGradient r="43.452892" fy="90.500206" fx="64.85778" cy="90.500206" cx="64.85778"
      gradientTransform="matrix(7.0055819e-6,1.0277524,-1.6438325,0,213.62451,23.838182)"
      gradientUnits="userSpaceOnUse" id="radialGradient8001" href="#linearGradient7907" inkscape:collect="always"/>

    <linearGradient inkscape:collect="always" id="linearGradient8021">
      <stop style="stop-color:#32a4da;stop-opacity:1" offset="0" id="stop8023"/>
      <stop style="stop-color:#1596d4;stop-opacity:1" offset="1" id="stop8025"/>
    </linearGradient>

    <linearGradient inkscape:collect="always" id="linearGradient8027">
      <stop style="stop-color:#32a4da;stop-opacity:1" offset="0" id="stop8029"/>
      <stop style="stop-color:#1596d4;stop-opacity:1" offset="1" id="stop8031"/>
    </linearGradient>

    <linearGradient inkscape:collect="always" id="linearGradient8033">
      <stop style="stop-color:#32a4da;stop-opacity:1" offset="0" id="stop8035"/>
      <stop style="stop-color:#1596d4;stop-opacity:1" offset="1" id="stop8037"/>
    </linearGradient>

    <linearGradient inkscape:collect="always" id="linearGradient8039">
      <stop style="stop-color:#32a4da;stop-opacity:1" offset="0" id="stop8041"/>
      <stop style="stop-color:#1596d4;stop-opacity:1" offset="1" id="stop8043"/>
    </linearGradient>

    <linearGradient inkscape:collect="always" id="linearGradient8045">
      <stop style="stop-color:#32a4da;stop-opacity:1" offset="0" id="stop8047"/>
      <stop style="stop-color:#1596d4;stop-opacity:1" offset="1" id="stop8049"/>
    </linearGradient>

    <linearGradient inkscape:collect="always" id="linearGradient8051">
      <stop style="stop-color:#32a4da;stop-opacity:1" offset="0" id="stop8053"/>
      <stop style="stop-color:#1596d4;stop-opacity:1" offset="1" id="stop8055"/>
    </linearGradient>

    <radialGradient inkscape:collect="always" href="#linearGradient3170" id="radialGradient3997"
      gradientUnits="userSpaceOnUse"
      gradientTransform="matrix(3.680679e-6,1.2026027,-1.4478872,0,551.76539,-203.01874)"
      cx="309.19046" cy="132.24107" fx="309.19046" fy="132.24107" r="400.112"/>
  </defs>

  <!-- Put the original logo on top, centered, clipped to the white circle -->
  <g clip-path="url(#clipCircle)">
    <!-- ===== ORIGINAL SVG CONTENT (unchanged), just transformed to fit =====
         Your original viewBox: 99.938 -236.648 800.22402 799.94398
         We'll map that into our 800x800 canvas.
    -->
    <g transform="
      translate(0,0)
      scale(1,1)
    ">
      <!-- This transform fits the original viewBox into 800x800 -->
      <g transform="translate(0.938,256.648) scale(0.8)">
        <g id="g3178" transform="translate(0,9.9121524e-4)">
          <path
            d="m 254.695,479.198 c 67.835,52.511 152.979,84.06 245.354,84.06 101.092,0 193.248,-37.531 263.584,-99.141 0.854,-0.753 0.432,-1.251 -0.408,-0.753 -31.561,21.079 -121.516,67.09 -263.172,67.09 -123.104,0 -200.902,-27.468 -244.837,-51.989 -0.841,-0.415 -1.152,0.216 -0.521,0.733 m 272.513,20.443 c 98.461,0 206.658,-26.84 271.369,-79.97 17.708,-14.478 34.575,-33.743 49.683,-59.637 8.696,-14.899 17.202,-32.599 24.131,-49.998 0.308,-0.848 -0.217,-1.263 -0.854,-0.309 -60.177,88.557 -234.436,143.793 -414.366,143.793 -127.184,0 -264.027,-40.671 -317.604,-118.327 -0.528,-0.718 -1.055,-0.41 -0.733,0.414 49.91,106.085 201.324,164.034 388.374,164.034 M 419.63,323.657 c -204.782,0 -301.341,-95.374 -318.855,-160.461 -0.217,-0.943 -0.837,-0.736 -0.837,0.109 0,21.911 2.192,50.188 5.968,68.956 1.799,9.138 9.234,23.474 20.135,34.902 49.588,51.686 173.213,124.111 387.316,124.111 291.705,0 358.401,-97.168 372.021,-129.125 9.739,-22.854 14.784,-64.151 14.784,-98.845 0,-8.396 -0.211,-15.1 -0.528,-21.683 0,-1.067 -0.619,-1.155 -0.832,-0.114 C 884.227,219.701 635,323.657 419.63,323.657 M 138.511,-8.272 c -11.732,23.287 -24.74,62.574 -28.607,82.908 -1.695,8.711 -0.973,12.896 2.082,19.396 24.545,52.076 148.695,135.398 438.289,135.398 176.674,0 313.918,-43.404 336.152,-122.61 4.096,-14.581 4.313,-29.976 -0.946,-50.72 -5.876,-23.182 -16.883,-50.211 -26.198,-69.192 -0.308,-0.62 -0.85,-0.526 -0.739,0.205 C 862.004,91 572.296,157.954 426.121,157.954 267.789,157.954 135.695,94.87 135.695,15.216 c 0,-7.652 1.585,-15.309 3.562,-23.275 0.198,-0.731 -0.426,-0.852 -0.746,-0.213 m 625.77,-127.551 c 1.682,2.633 2.52,5.445 2.52,9.231 C 766.8,-82.154 630.796,-3.54 414.293,-3.54 c -159.078,0 -188.86,-59.014 -188.86,-96.544 0,-13.415 5.145,-27.143 16.477,-41.083 0.619,-0.829 0.093,-1.148 -0.622,-0.533 -20.666,17.514 -39.654,37.221 -56.312,58.493 -7.958,10.061 -12.898,18.974 -12.898,24.313 0,77.773 195.016,134.164 377.361,134.164 194.291,0 281.004,-63.426 281.004,-119.167 0,-19.921 -7.755,-31.55 -27.591,-54.095 -12.877,-14.668 -25.056,-26.609 -37.948,-38.365 -0.623,-0.512 -1.057,-0.093 -0.623,0.534 m -59.565,-44.429 c -59.964,-35.941 -129.594,-56.389 -204.664,-56.389 -75.592,0 -147.322,21.163 -207.5,58.056 -18.053,11.109 -28.211,20.01 -28.211,31.456 0,33.735 78.84,70.007 218.713,70.007 138.421,0 245.783,-39.73 245.783,-77.975 0.002,-9.127 -7.976,-15.514 -24.121,-25.155"
            style="fill:url(#radialGradient3997);fill-opacity:1"/>
        </g>
      </g>
    </g>
  </g>
</svg>