<svg xmlns="http://www.w3.org/2000/svg" width="512" height="512" viewBox="0 0 512 512" role="img" aria-label="Logo">
  
  <!-- White circle background -->
  <circle cx="256" cy="256" r="256" fill="#FFFFFF"/>

  <!-- Logo group -->
  <!-- Original viewBox: 0 0 408.6 239.9 -->
  <!-- Scaled and centered -->
  <g transform="translate(52 150) scale(1.0)">
    
    <polygon fill="#9C1C26"
      points="161.8,49.9 105.4,49.9 105,239.9 56.1,239.9 56.1,50.3 0,49.9 0,0.7 161.8,0.7"/>

    <polygon fill="#9C1C26"
      points="302.4,42 331,1.1 383.6,1.1 331,86.8 385.5,172 332,172 302.2,128.9 228,239.5 175,239.5 274.4,87 219.6,1.1 273.9,1.1"/>

    <path fill="#9C1C26"
      d="M214.8,147.7c-3.8,34.2-26.4,65.6-57.2,80.7c-14.1,6.7-29.6,11.1-46.8,10.9v-47.6
      c25.8-0.8,46.7-17.4,54.5-39.8c1.3-2.1,1.5-5.5,2.1-8L167.8,0H215L214.8,147.7z"/>


  </g>

</svg>