<svg
  width="512"
  height="512"
  viewBox="0 0 512 512"
  xmlns="http://www.w3.org/2000/svg"
  xml:space="preserve"
>
  <!-- T-Mobile magenta circle -->
  <circle cx="256" cy="256" r="256" fill="#E20074" />

  <!-- Uploaded logo (centered + scaled) -->
  <g transform="translate(87.7 74.4) scale(1.739)" fill="#FFFFFF">
    <path d="M96.1,165.7h29.1V159c-3.2,0-5.5-0.1-6.8-0.2c-4.5-0.4-7.7-1.6-9.6-3.6c-2.2-2.3-3.3-7.2-3.3-14.8v-31.9V53.4
      c9.8,0.3,17.5,3.5,23,9.7c5.3,5.9,8.5,15,9.7,27.3l6.3-1.1l-1.2-41.6H48.9l-1.2,41.6l6.3,1.1c1.2-12.3,4.4-21.4,9.7-27.3
      c5.5-6.2,13.2-9.5,23-9.7v55.1v31.9c0,7.6-1.1,12.5-3.3,14.8c-1.9,1.9-5.1,3.1-9.6,3.6c-1.3,0.1-3.6,0.2-6.8,0.2v6.7H96.1" />
    <rect x="120.6" y="102" width="23.9" height="23.9" />
    <rect x="47.8" y="102" width="23.9" height="23.9" />
  </g>
</svg>
