<?xml version="1.0" encoding="utf-8"?>
<!-- Scaled to 512x512 -->
<svg width="512px" height="512px" viewBox="0 0 200 200" xmlns="http://www.w3.org/2000/svg">

  <!-- Black background circle -->
  <circle cx="100" cy="100" r="100" fill="#000000"/>

  <!-- White Uber logo (scaled & centered proportionally) -->
  <g transform="translate(22 74) scale(1.0)">
    <path
      fill="#ffffff"
      d="M7.7,31.8V0H0v32.2c0,12.1,8.5,20.1,19.5,20.1c5.4,0,10.1-2.1,13.6-5.7v4.8h7.6V0H33v31.8
         c0,8.2-5.5,13.7-12.6,13.7C13.2,45.4,7.7,40.1,7.7,31.8z M48.3,51.5h7.3v-4.7
         c3.4,3.5,8.2,5.6,13.4,5.6c11,0,19.7-8.7,19.7-19.6c0-10.9-8.7-19.6-19.7-19.6
         c-5.2,0-9.9,2.1-13.3,5.6V0h-7.4V51.5z M55.6,32.8c0-7.3,5.8-13,12.9-13
         c7.1,0,12.9,5.7,12.9,13c0,7.2-5.8,13-12.9,13C61.3,45.8,55.6,40,55.6,32.8z
         M93.1,32.7c0,11.2,8.7,19.6,19.9,19.6c6.8,0,12.4-3,16.2-8l-5.4-4
         c-2.8,3.7-6.5,5.5-10.8,5.5c-6.3,0-11.4-4.6-12.4-10.7h30.5v-2.4
         c0-11.2-7.9-19.5-18.7-19.5C101.4,13.2,93.1,22.1,93.1,32.7z
         M112.2,19.7c5.5,0,10.1,3.8,11.4,9.6h-22.9C102.1,23.5,106.7,19.7,112.2,19.7z
         M155.8,20.6v-6.9h-2.6c-4.1,0-7.1,1.9-9,4.9V14H137v37.5h7.4V30.1
         c0-5.8,3.5-9.6,8.4-9.6H155.8z"/>
  </g>

</svg>